<?xml version="1.0" standalone="no"?>
<!DOCTYPE svg PUBLIC "-//W3C//DTD SVG 20010904//EN"
 "http://www.w3.org/TR/2001/REC-SVG-20010904/DTD/svg10.dtd">
<svg version="1.0" xmlns="http://www.w3.org/2000/svg"
 width="203.000000pt" height="203.000000pt" viewBox="0 0 203.000000 203.000000"
 preserveAspectRatio="xMidYMid meet">
<metadata>
Created by potrace 1.10, written by Peter Selinger 2001-2011
</metadata>
<g transform="translate(0.000000,203.000000) scale(0.100000,-0.100000)"
fill="#F15946" stroke="none">
<path d="M505 1461 c-50 -22 -101 -79 -115 -128 -6 -21 -10 -65 -8 -98 2 -49
6 -60 22 -63 30 -6 40 14 47 95 6 72 8 78 42 110 61 55 160 44 204 -24 15 -23
19 -59 23 -236 4 -189 7 -211 23 -221 15 -9 21 -7 33 8 11 16 14 59 14 200 0
100 -5 200 -10 224 -14 60 -45 98 -104 127 -59 30 -115 32 -171 6z"/>
<path d="M1013 1456 c-81 -38 -128 -123 -78 -142 10 -4 32 12 63 45 45 48 51
51 98 51 55 0 95 -21 125 -66 17 -26 19 -50 19 -226 0 -165 2 -199 16 -212 19
-19 26 -20 42 -4 9 9 12 70 12 212 0 222 -7 253 -66 308 -65 61 -147 73 -231
34z"/>
<path d="M1473 1460 c-47 -28 -56 -53 -61 -181 -5 -129 0 -164 24 -173 36 -14
44 11 44 145 0 116 2 131 20 149 25 25 31 25 64 -1 l27 -21 -1 -262 c-1 -143
-1 -267 -1 -273 1 -19 48 -16 55 3 3 9 6 135 6 280 0 291 -3 310 -60 339 -39
20 -79 19 -117 -5z"/>
<path d="M562 1298 c-9 -9 -12 -69 -12 -207 0 -175 3 -201 21 -241 11 -24 28
-53 37 -64 22 -25 110 -66 142 -66 75 0 168 60 196 126 19 46 22 343 3 355
-19 12 -25 11 -43 -7 -13 -13 -16 -43 -16 -168 0 -140 -2 -156 -21 -180 -29
-37 -70 -56 -120 -56 -36 0 -48 6 -85 44 l-44 43 0 197 c0 117 -4 205 -10 217
-12 22 -30 25 -48 7z"/>
<path d="M1074 1296 c-3 -7 -4 -110 -2 -227 3 -207 4 -215 27 -247 33 -48 95
-89 142 -97 120 -20 239 83 239 208 0 34 -5 49 -18 56 -28 15 -43 -2 -48 -55
-3 -27 -14 -62 -24 -79 -39 -63 -124 -84 -187 -45 -58 35 -63 57 -63 278 0
141 -3 201 -12 210 -16 16 -47 15 -54 -2z"/>
<path d="M390 1055 c-21 -26 -8 -219 19 -279 32 -74 68 -116 97 -116 33 0 32
28 -5 82 -41 63 -51 101 -51 200 0 91 -10 128 -34 128 -8 0 -19 -7 -26 -15z"/>
<path d="M959 716 c-24 -27 -64 -54 -101 -71 -56 -25 -69 -27 -144 -22 -64 4
-86 1 -95 -9 -18 -22 -3 -42 43 -55 98 -26 249 15 319 87 l32 33 37 -33 c20
-18 63 -46 96 -62 51 -25 70 -29 144 -29 72 0 94 4 146 28 70 33 148 105 142
133 -6 34 -37 27 -88 -19 -123 -110 -291 -103 -414 17 -26 25 -54 46 -63 46
-8 0 -32 -20 -54 -44z"/>
</g>
</svg>
